<svg id="Laag_2" data-name="Laag 2" xmlns="http://www.w3.org/2000/svg" viewBox="0 0 27.01 34.19"><defs><style>.cls-1{fill:#fff;}</style></defs><title>upload-2</title><path class="cls-1" d="M13.38,1.23C14.61,3.6,17,5.46,18.87,7.39q3.26,3.42,6.56,6.8c1.32,1.35,2.16-2.11,1.13-3.17Q23.28,7.66,20,4.34C18.47,2.81,16.14,0,13.81,0c-0.53,0-.6.89-0.43,1.23h0Z" transform="translate(-0.01)"/><path class="cls-1" d="M13.74,0.26C11.87-.64,8.14,3.19,7,4.38A100.82,100.82,0,0,0,.35,12.31c-1,1.26.41,4.45,1.82,2.64C4.32,12.2,6.36,9.26,8.76,6.73c1.71-1.8,4.71-3.2,5.3-5.68A0.73,0.73,0,0,0,13.74.26h0Z" transform="translate(-0.01)"/><path class="cls-1" d="M13.16,1.84c-0.91,4.55-.31,9.39-0.4,14-0.11,5.64-1.43,11.26-1.34,16.86,0,1.19,1.35,2.26,1.93.74,1.85-4.87,1.76-10.71,1.87-15.89S15.69,6.82,14.47,1.8c-0.23-1-1.16-.94-1.36,0h0Z" transform="translate(-0.01)"/></svg>