<svg id="Laag_2" data-name="Laag 2" xmlns="http://www.w3.org/2000/svg" viewBox="0 0 27.02 34.2"><title>upload-2</title><path d="M15.91,1.3c1.23,2.37,3.65,4.23,5.49,6.16q3.26,3.42,6.56,6.8c1.32,1.35,2.16-2.11,1.13-3.17q-3.28-3.36-6.6-6.68C21,2.88,18.67.07,16.34,0.07c-0.53,0-.6.89-0.43,1.23h0Z" transform="translate(-2.53 -0.07)"/><path d="M16.27,0.33c-1.87-.9-5.6,2.93-6.77,4.12a100.82,100.82,0,0,0-6.62,7.93c-1,1.26.41,4.45,1.82,2.64,2.15-2.75,4.19-5.69,6.59-8.22C13,5,16,3.6,16.59,1.12A0.73,0.73,0,0,0,16.27.33h0Z" transform="translate(-2.53 -0.07)"/><path d="M15.69,1.91c-0.91,4.55-.31,9.39-0.4,14-0.11,5.64-1.43,11.26-1.34,16.86,0,1.19,1.35,2.26,1.93.74,1.85-4.87,1.76-10.71,1.87-15.89S18.22,6.89,17,1.87c-0.23-1-1.16-.94-1.36,0h0Z" transform="translate(-2.53 -0.07)"/></svg>