<?xml version="1.0"?><svg width="744.09448819" height="1052.3622047" xmlns="http://www.w3.org/2000/svg">
 <title>Thinking balloon</title>

 <g>
  <title>Layer 1</title>
  <g transform="translate(-80 -33)" id="layer1">
   <path fill="#ffffff" stroke="#000000" stroke-width="10.856777" stroke-linejoin="round" stroke-miterlimit="4" stroke-dashoffset="0" id="path3422" d="m512.874756,187.837936c-45.817474,0 -85.566132,19.703979 -107.801056,48.803345c-20.62912,-11.626678 -45.635376,-18.656525 -72.796844,-18.656433c-69.902924,0 -126.697327,45.304764 -126.697327,101.066116c0,4.097626 0.95343,8.014252 1.548889,11.984589c-60.370087,7.683929 -106.71701,49.026459 -106.71701,99.336487c0,49.849091 45.456436,91.106415 105.013214,99.336395c-1.206741,5.597046 -2.168381,11.303406 -2.168381,17.173828c0,55.761414 56.794357,100.942627 126.697342,100.942627c34.238647,0 65.175171,-10.90979 87.975708,-28.540771c23.235901,22.047729 57.587372,36.44812 96.494415,36.44812c55.512085,0 102.178894,-28.771057 119.262878,-68.448242c13.673889,4.033569 28.253418,6.671936 43.677979,6.671936c69.902954,0 126.54248,-45.30481 126.54248,-101.066223c0,-28.039948 -14.330383,-53.352356 -37.482544,-71.660614c11.688477,-15.296875 18.89624,-33.049988 18.89624,-52.262817c0,-55.761383 -56.794556,-100.942688 -126.697571,-100.942627c-7.358398,0 -14.513367,0.643738 -21.529175,1.606232c-11.287781,-46.554138 -62.577148,-81.791946 -124.219238,-81.791946z"/>
   <path fill="#ffffff" stroke="#000000" stroke-width="4.798749" stroke-linejoin="round" stroke-miterlimit="4" stroke-dashoffset="0" id="path3424" d="m688.990906,699.857727a47.279781,37.714954 0 1 1 -94.55957,0a47.279781,37.714954 0 1 1 94.55957,0z"/>
   <path fill="#ffffff" stroke="#000000" stroke-width="5.402773" stroke-linejoin="round" stroke-miterlimit="4" stroke-dashoffset="0" id="path3426" d="m737.56665,782.144165a32.816311,26.177485 0 1 1 -65.632568,0a32.816311,26.177485 0 1 1 65.632568,0z"/>
  </g>
 </g>
</svg>